# xmcd CD database file
#
# Track frame offsets:
#	150
#	20830
#	39550
#	55570
#	77299
#	94113
#	108059
#	119580
#	128893
#	142763
#	156080
#	166135
#	188653
#
# Disc length: 2670 seconds
#
# Revision: 0
# Processed by: cddbd v1.5.2PL0 Copyright (c) Steve Scherf et al.
# Submitted via: CDex 1.70beta2
#
DISCID=970a6c0d
DTITLE=Tassinari - Reine du ciel
DYEAR=2006
DGENRE=New Age
TTITLE0=Partition du chocolat
TTITLE1=Reine du ciel
TTITLE2=L allegria di joffiel
TTITLE3=Preludio azadkiel
TTITLE4=La santa rosa
TTITLE5=Tema de san rafael
TTITLE6=Tsu si vi sab
TTITLE7=En andalucia
TTITLE8=El val de la noche
TTITLE9=Cafe frances
TTITLE10=La española
TTITLE11=Haniel
TTITLE12=Gloria al señor
EXTD=YEAR: 2006
EXTT0=
EXTT1=
EXTT2=
EXTT3=
EXTT4=
EXTT5=
EXTT6=
EXTT7=
EXTT8=
EXTT9=
EXTT10=
EXTT11=
EXTT12=
PLAYORDER=
